<svg viewBox="0 0 800 130" xmlns="http://www.w3.org/2000/svg">
  <style>
    @namespace svg url(http://www.w3.org/2000/svg);
    svg { font-family: "Courier New", monospace; text-rendering: geometricPrecision;}
    svg|a:link, svg|a:visited { cursor: pointer;}
    .terminal-dark { fill: #0a2e0a;}
    .terminal-light { fill: #071f07;}
    .message { fill: #00ff41; font-size: 14px; font-family: "Courier New", monospace;}
    .call { fill: #5eff8a; font-size: 22px; font-family: "Courier New", monospace; font-weight: bold;}
    .arrow { font-size: 14px;}
    .scanline {
      fill: none;
      stroke: #043404;
      stroke-width: 1px;
      opacity: 0.3;
    }
    .glow {
      filter: url(#glow);
    }
  </style>
  
  <defs>
    <clipPath id="round-corners">
      <rect width="100%" height="100%" rx="3" />
    </clipPath>
    <filter id="glow" x="-10%" y="-10%" width="120%" height="120%">
      <feGaussianBlur stdDeviation="2" result="blur"/>
      <feComposite in="SourceGraphic" in2="blur" operator="over"/>
    </filter>
  </defs>
  
  <g clip-path="url(#round-corners)">
    <rect x="0" y="0" width="100%" height="100%" class="terminal-dark"/>
    <rect x="0" y="0" width="100%" height="85px" class="terminal-light"/>
    
    <!-- Scanlines effect -->
    <line x1="0" y1="5" x2="800" y2="5" class="scanline" />
    <line x1="0" y1="15" x2="800" y2="15" class="scanline" />
    <line x1="0" y1="25" x2="800" y2="25" class="scanline" />
    <line x1="0" y1="35" x2="800" y2="35" class="scanline" />
    <line x1="0" y1="45" x2="800" y2="45" class="scanline" />
    <line x1="0" y1="55" x2="800" y2="55" class="scanline" />
    <line x1="0" y1="65" x2="800" y2="65" class="scanline" />
    <line x1="0" y1="75" x2="800" y2="75" class="scanline" />
    <line x1="0" y1="85" x2="800" y2="85" class="scanline" />
    <line x1="0" y1="95" x2="800" y2="95" class="scanline" />
    <line x1="0" y1="105" x2="800" y2="105" class="scanline" />
    <line x1="0" y1="115" x2="800" y2="115" class="scanline" />
    <line x1="0" y1="125" x2="800" y2="125" class="scanline" />
  </g>
  
  <text x="0" y="25" class="message glow">
    <tspan x="30" dy="0.2em">This project is currently in <tspan font-weight="bold">idea and experimental phase</tspan>.</tspan>
    <tspan x="30" dy="1.2em">We're working on developing a solid foundation before official release.</tspan>
    <tspan x="30" dy="1.2em">Support us to accelerate development and help this project launch under MIT license.</tspan>
  </text>
  
  <text x="50%" y="107" dominant-baseline="middle" text-anchor="middle" class="call glow">
    Star the repo or open an issue for updates <tspan dominant-baseline="middle" class="arrow">➔</tspan>
  </text>
</svg>

